<?xml version="1.0" encoding="UTF-8"?>
<svg version="1.1" xmlns="http://www.w3.org/2000/svg" width="500" height="500">
<path d="M0 0 C165 0 330 0 500 0 C500 165 500 330 500 500 C335 500 170 500 0 500 C0 335 0 170 0 0 Z " fill="#FEFEFE" transform="translate(0,0)"/>
<path d="M0 0 C0.77923828 0.00902344 1.55847656 0.01804688 2.36132812 0.02734375 C4.26185447 0.05066309 6.16222008 0.08652414 8.0625 0.125 C7.43893407 2.93728234 6.55974163 5.34589546 5.3125 7.9375 C3.68016252 11.47814568 2.43818245 15.03346309 1.29956055 18.76171875 C-0.91750302 25.96385905 -3.04378172 32.50742976 -10.12109375 36.29296875 C-10.72050781 36.56753906 -11.31992188 36.84210938 -11.9375 37.125 C-11.94114563 37.7314183 -11.94479126 38.33783661 -11.94854736 38.96263123 C-11.99054044 45.30644281 -12.06000293 51.64954219 -12.14501953 57.99291992 C-12.17314722 60.35645403 -12.19440231 62.72008078 -12.20849609 65.08374023 C-12.23003874 68.49250432 -12.27674927 71.90016421 -12.328125 75.30859375 C-12.32996796 76.87944984 -12.32996796 76.87944984 -12.33184814 78.48204041 C-12.47600962 85.79558495 -13.56758261 92.36854782 -18.59918213 97.97727966 C-25.05653793 104.16794664 -32.66008519 105.69388449 -41.3125 105.625 C-42.14740967 105.61927979 -42.98231934 105.61355957 -43.8425293 105.60766602 C-51.56360084 105.3841831 -57.16655376 103.68942383 -62.86328125 98.3046875 C-66.9375 93.82772989 -66.9375 93.82772989 -66.9375 91.125 C-64.98164675 90.12015796 -63.02273763 89.12126195 -61.0625 88.125 C-59.97195312 87.568125 -58.88140625 87.01125 -57.7578125 86.4375 C-54.9375 85.125 -54.9375 85.125 -52.9375 85.125 C-51.58317325 86.43700404 -50.25016518 87.77131404 -48.9375 89.125 C-44.96877131 91.10936435 -40.25351157 90.66138294 -35.9375 90.125 C-32.0274884 87.57152304 -30.77608211 85.19127858 -29.625 80.8125 C-29.398125 79.595625 -29.17125 78.37875 -28.9375 77.125 C-29.7625 77.785 -30.5875 78.445 -31.4375 79.125 C-37.74945349 82.74661266 -47.38705729 82.33643234 -54.28515625 80.5 C-59.64801155 77.76360003 -64.41982926 72.12013827 -67.1171875 66.796875 C-69.58393863 58.76231418 -68.77299585 49.53147475 -64.9375 42.125 C-61.75765086 37.65602284 -58.55365049 34.91616076 -53.9375 32.125 C-54.783125 31.196875 -55.62875 30.26875 -56.5 29.3125 C-57.94140625 27.73046875 -57.94140625 27.73046875 -58.9375 26.125 C-58.6075 25.135 -58.2775 24.145 -57.9375 23.125 C-52.24423548 20.27836774 -44.7571147 19.98570113 -38.671875 21.80078125 C-36.75 22.625 -36.75 22.625 -33.9375 24.125 C-33.855 23.09375 -33.7725 22.0625 -33.6875 21 C-32.27538078 13.7040507 -27.72139582 9.38083601 -21.9375 5.125 C-14.82251702 0.97459326 -8.08286292 -0.18008092 0 0 Z " fill="#186F33" transform="translate(90.9375,209.875)"/>
<path d="M0 0 C5.94 0 11.88 0 18 0 C19.258125 2.495625 20.51625 4.99125 21.8125 7.5625 C22.20284424 8.33408447 22.59318848 9.10566895 22.99536133 9.90063477 C25.15821112 14.20931268 27.14609836 18.54946641 29 23 C31.20702132 20.79297868 31.95697396 19.07346175 33.1640625 16.2109375 C33.56367188 15.26992188 33.96328125 14.32890625 34.375 13.359375 C34.99375 11.88210937 34.99375 11.88210937 35.625 10.375 C36.04523438 9.38242188 36.46546875 8.38984375 36.8984375 7.3671875 C37.93662594 4.91328755 38.96887562 2.45687661 40 0 C44.29 0 48.58 0 53 0 C56.3 7.59 59.6 15.18 63 23 C65.14226361 20.85773639 65.91965224 19.22116396 67.12890625 16.46484375 C67.72155273 15.12776367 67.72155273 15.12776367 68.32617188 13.76367188 C68.73416016 12.83103516 69.14214844 11.89839844 69.5625 10.9375 C70.37430365 9.09156775 71.18800463 7.24646836 72.00390625 5.40234375 C72.36299072 4.58241943 72.7220752 3.76249512 73.09204102 2.91772461 C74 1 74 1 75 0 C77.52068181 -0.08846834 80.01454417 -0.11534524 82.53515625 -0.09765625 C83.53621399 -0.09614563 83.53621399 -0.09614563 84.55749512 -0.09460449 C87.0591808 -0.08935808 89.56084206 -0.07539691 92.0625 -0.0625 C97.651875 -0.041875 103.24125 -0.02125 109 0 C109 15.51 109 31.02 109 47 C103.72 47 98.44 47 93 47 C92.67 32.81 92.34 18.62 92 4 C86.6748374 14.03539542 86.6748374 14.03539542 81.35107422 24.0715332 C77.28085466 31.7405351 73.17626866 39.38798316 69 47 C65.04 47 61.08 47 57 47 C53.7 39.74 50.4 32.48 47 25 C44.76387014 27.98150647 43.39035886 30.03852064 41.95703125 33.328125 C41.60576172 34.12734375 41.25449219 34.9265625 40.89257812 35.75 C40.53615234 36.575 40.17972656 37.4 39.8125 38.25 C39.26045898 39.51070313 39.26045898 39.51070313 38.69726562 40.796875 C37.79352999 42.86255645 36.8961364 44.93101051 36 47 C32.04 47 28.08 47 24 47 C23.48614746 46.02764404 22.97229492 45.05528809 22.44287109 44.0534668 C20.50902912 40.3945528 18.57422867 36.73614632 16.63916016 33.07788086 C15.8068734 31.50412273 14.97483561 29.9302329 14.14306641 28.35620117 C12.93720266 26.07434709 11.7304703 23.79295462 10.5234375 21.51171875 C10.13267029 20.77235077 9.74190308 20.03298279 9.33929443 19.27120972 C6.61974452 14.13669776 3.83539005 9.04189059 0.98291016 3.97973633 C0 2 0 2 0 0 Z " fill="#176E32" transform="translate(176,243)"/>
<path d="M0 0 C5.28 0 10.56 0 16 0 C16.33 11.55 16.66 23.1 17 35 C19.31 33.68 21.62 32.36 24 31 C30.28052722 28.90649093 36.21690404 29.28008684 42.25 32 C48.13504039 35.26638248 51.64351833 39.61815087 54.1328125 45.82421875 C55.98008212 52.58921967 56.38790275 60.90777298 53.5 67.4375 C49.96996441 73.27901798 44.51310229 77.94779469 38 80 C30.45065373 80.91829436 24.50205519 80.70255643 18.29296875 76.09375 C17.86628906 75.7328125 17.43960937 75.371875 17 75 C16.67 76.32 16.34 77.64 16 79 C10.72 79 5.44 79 0 79 C0 52.93 0 26.86 0 0 Z " fill="#176E31" transform="translate(324,211)"/>
<path d="M0 0 C5.08042921 3.44378088 10.31923462 7.9137502 12 14 C12.89147152 21.59873346 13.41425057 29.05741476 8.55078125 35.359375 C2.91318268 41.32358508 -2.79670246 45.88130813 -11.26953125 46.46875 C-12.78350066 46.50308711 -14.29819567 46.51283717 -15.8125 46.5 C-16.60567627 46.49355469 -17.39885254 46.48710937 -18.21606445 46.48046875 C-25.92365525 46.24066652 -31.41487289 44.39679022 -37.08203125 39.02734375 C-43.38236141 32.16242189 -44.64792259 27.03962488 -44.375 17.70703125 C-43.86114876 12.62739766 -42.46155582 9.68119768 -39 6 C-38.49210937 5.44957031 -37.98421875 4.89914063 -37.4609375 4.33203125 C-26.88310215 -5.81968277 -12.70121491 -6.5430501 0 0 Z " fill="#186F33" transform="translate(465,245)"/>
<path d="M0 0 C5.08042921 3.44378088 10.31923462 7.9137502 12 14 C12.89147152 21.59873346 13.41425057 29.05741476 8.55078125 35.359375 C2.91318268 41.32358508 -2.79670246 45.88130813 -11.26953125 46.46875 C-12.78350066 46.50308711 -14.29819567 46.51283717 -15.8125 46.5 C-16.60567627 46.49355469 -17.39885254 46.48710937 -18.21606445 46.48046875 C-25.92365525 46.24066652 -31.41487289 44.39679022 -37.08203125 39.02734375 C-43.38236141 32.16242189 -44.64792259 27.03962488 -44.375 17.70703125 C-43.86114876 12.62739766 -42.46155582 9.68119768 -39 6 C-38.49210938 5.44957031 -37.98421875 4.89914063 -37.4609375 4.33203125 C-26.88310215 -5.81968277 -12.70121491 -6.5430501 0 0 Z " fill="#186F33" transform="translate(167,245)"/>
<path d="M0 0 C5.28 0 10.56 0 16 0 C16 5.94 16 11.88 16 18 C19.3 18 22.6 18 26 18 C26 21.96 26 25.92 26 30 C22.7 30 19.4 30 16 30 C16.11381897 32.93832645 16.24056551 35.8751065 16.375 38.8125 C16.4059375 39.64587891 16.436875 40.47925781 16.46875 41.33789062 C16.50742187 42.14033203 16.54609375 42.94277344 16.5859375 43.76953125 C16.63306885 44.87711792 16.63306885 44.87711792 16.68115234 46.00708008 C16.90834614 48.31349588 16.90834614 48.31349588 19 51 C21.58380177 51.25030977 21.58380177 51.25030977 24 51 C26.44697666 55.36200187 27.50269348 59.02693484 28 64 C22.60923026 67.35246875 16.09625108 66.5529158 10 66 C5.09013665 63.96833241 3.12789456 61.2208165 0.82470703 56.47851562 C-0.79757662 51.60302016 -0.40798564 46.57984595 -0.25 41.5 C-0.23195313 40.39140625 -0.21390625 39.2828125 -0.1953125 38.140625 C-0.1485115 35.42616704 -0.08296375 32.71355284 0 30 C-2.31 30 -4.62 30 -7 30 C-7 26.04 -7 22.08 -7 18 C-4.69 18 -2.38 18 0 18 C0 12.06 0 6.12 0 0 Z " fill="#176E31" transform="translate(295,225)"/>
<path d="M0 0 C-2.31 4.62 -4.62 9.24 -7 14 C-7.99 13.67 -8.98 13.34 -10 13 C-11.66458673 12.90691456 -13.33281997 12.87003815 -15 12.875 C-15.86625 12.87242187 -16.7325 12.86984375 -17.625 12.8671875 C-20.15011695 12.90405795 -20.15011695 12.90405795 -23 14 C-24.34703602 17.33927029 -24.20317742 20.95700456 -24.31640625 24.515625 C-24.35830078 25.76601563 -24.40019531 27.01640625 -24.44335938 28.3046875 C-24.48267578 29.60664063 -24.52199219 30.90859375 -24.5625 32.25 C-24.60568359 33.56742187 -24.64886719 34.88484375 -24.69335938 36.2421875 C-24.79941854 39.49466854 -24.90021153 42.74732053 -25 46 C-30.28 46 -35.56 46 -41 46 C-41 30.49 -41 14.98 -41 -1 C-35.72 -1 -30.44 -1 -25 -1 C-24.67 0.65 -24.34 2.3 -24 4 C-23.52949219 3.57847656 -23.05898438 3.15695313 -22.57421875 2.72265625 C-21.95160156 2.17480469 -21.32898438 1.62695312 -20.6875 1.0625 C-20.07261719 0.51722656 -19.45773437 -0.02804688 -18.82421875 -0.58984375 C-12.68692236 -5.33409214 -6.45068481 -2.76457921 0 0 Z " fill="#186F32" transform="translate(424,244)"/>
<path d="M0 0 C-2.31 4.62 -4.62 9.24 -7 14 C-7.99 13.67 -8.98 13.34 -10 13 C-11.66458673 12.90691456 -13.33281997 12.87003815 -15 12.875 C-15.86625 12.87242187 -16.7325 12.86984375 -17.625 12.8671875 C-20.15011695 12.90405795 -20.15011695 12.90405795 -23 14 C-24.34703602 17.33927029 -24.20317742 20.95700456 -24.31640625 24.515625 C-24.35830078 25.76601563 -24.40019531 27.01640625 -24.44335938 28.3046875 C-24.48267578 29.60664063 -24.52199219 30.90859375 -24.5625 32.25 C-24.60568359 33.56742187 -24.64886719 34.88484375 -24.69335938 36.2421875 C-24.79941854 39.49466854 -24.90021153 42.74732053 -25 46 C-30.28 46 -35.56 46 -41 46 C-41 30.49 -41 14.98 -41 -1 C-35.72 -1 -30.44 -1 -25 -1 C-24.67 0.65 -24.34 2.3 -24 4 C-23.52949219 3.57847656 -23.05898437 3.15695313 -22.57421875 2.72265625 C-21.95160156 2.17480469 -21.32898438 1.62695312 -20.6875 1.0625 C-20.07261719 0.51722656 -19.45773438 -0.02804688 -18.82421875 -0.58984375 C-12.68692236 -5.33409214 -6.45068481 -2.76457921 0 0 Z " fill="#186F32" transform="translate(126,244)"/>
<path d="M0 0 C3.6578218 2.03993908 5.66946174 3.50419262 8 7 C8.49276868 12.223348 7.7921248 15.55328273 5 20 C0.77005384 22.8199641 -3.03220448 22.79231188 -8 22 C-11.34625024 19.47323961 -12.67977847 17.96066458 -14 14 C-14.37935127 9.90300628 -14.44928789 7.72206983 -12.25 4.1875 C-8.34562365 0.39157855 -5.49379774 -0.65925573 0 0 Z " fill="#F8FAF9" transform="translate(354,255)"/>
<path d="M0 0 C3.6578218 2.03993908 5.66946174 3.50419262 8 7 C8.49276868 12.223348 7.7921248 15.55328273 5 20 C0.77005384 22.8199641 -3.03220448 22.79231188 -8 22 C-11.34625024 19.47323961 -12.67977847 17.96066458 -14 14 C-14.37935127 9.90300628 -14.44928789 7.72206983 -12.25 4.1875 C-8.34562365 0.39157855 -5.49379774 -0.65925573 0 0 Z " fill="#F8FBF9" transform="translate(452,255)"/>
<path d="M0 0 C3.6578218 2.03993908 5.66946174 3.50419262 8 7 C8.49276868 12.223348 7.7921248 15.55328273 5 20 C0.77005384 22.8199641 -3.03220448 22.79231188 -8 22 C-11.34625024 19.47323961 -12.67977847 17.96066458 -14 14 C-14.37935127 9.90300628 -14.44928789 7.72206983 -12.25 4.1875 C-8.34562365 0.39157855 -5.49379774 -0.65925573 0 0 Z " fill="#F8FBF9" transform="translate(154,255)"/>
<path d="M0 0 C3.6578218 2.03993908 5.66946174 3.50419262 8 7 C8.49276868 12.223348 7.7921248 15.55328273 5 20 C0.77005384 22.8199641 -3.03220448 22.79231188 -8 22 C-11.34625024 19.47323961 -12.67977847 17.96066458 -14 14 C-14.37935127 9.90300628 -14.44928789 7.72206983 -12.25 4.1875 C-8.34562365 0.39157855 -5.49379774 -0.65925573 0 0 Z " fill="#F8FBF9" transform="translate(54,255)"/>
<path d="M0 0 C2.46111244 0.62751691 3.50724798 1.32353129 5.22265625 3.17578125 C7.35084509 6.88294891 8.02833527 8.38352196 7.16015625 12.55078125 C5.31124136 15.46690069 3.30021493 17.98075191 0.16015625 19.55078125 C-3.71198557 19.98101923 -5.36480746 19.86747211 -8.65234375 17.67578125 C-11.6384176 14.77502379 -11.79668194 13.989593 -12.21484375 9.73828125 C-12.14775486 6.38993561 -11.81923122 5.51886507 -9.90234375 2.55078125 C-6.34443401 0.22724836 -4.18718848 -0.24466043 0 0 Z " fill="#1B7035" transform="translate(279.83984375,213.44921875)"/>
<path d="M0 0 C-0.66386719 0.36351562 -1.32773438 0.72703125 -2.01171875 1.1015625 C-12.55294845 7.10313853 -17.5256358 14.41878599 -21 26 C-23.22468642 23.68632612 -23.98856195 22.50327432 -24.0625 19.25 C-21.01176482 9.91833944 -13.27910632 3.96671766 -4.83203125 -0.3984375 C-3 -1 -3 -1 0 0 Z " fill="#ECF3EE" transform="translate(84,217)"/>
<path d="M0 0 C-0.67546875 0.39832031 -1.3509375 0.79664063 -2.046875 1.20703125 C-2.93890625 1.73683594 -3.8309375 2.26664063 -4.75 2.8125 C-5.63171875 3.33457031 -6.5134375 3.85664063 -7.421875 4.39453125 C-9.72305738 5.82754028 -11.85083703 7.35230839 -14 9 C-15.99408077 10.34216975 -17.99301025 11.6772113 -20 13 C-17.0385672 6.32958826 -11.11059848 2.78640522 -4.796875 -0.43359375 C-3 -1 -3 -1 0 0 Z " fill="#E0ECE4" transform="translate(84,217)"/>
<path d="M0 0 C5.29441695 -0.50423019 7.81413519 0.81076967 12 4 C11.67 4.99 11.34 5.98 11 7 C9.948125 6.071875 9.948125 6.071875 8.875 5.125 C5.94222819 2.9572991 3.48817594 1.97344445 0 1 C0 0.67 0 0.34 0 0 Z " fill="#D7E6DB" transform="translate(44,235)"/>
</svg>
